<?xml version="1.0" ?><svg width="128px" height="128px" viewBox="0 0 128 128" data-name="Layer 1" id="Layer_1" xmlns="http://www.w3.org/2000/svg"><defs><style>.cls-1{fill:#231f20;}</style></defs><title/><path class="cls-1" d="M102.07,49.63h-1.54a38,38,0,0,0-73.06,0H25.93a7,7,0,0,0-7,7V99a7,7,0,0,0,7,7H39.07a7,7,0,0,0,7-7V56.63a7,7,0,0,0-7-7H31.65a34,34,0,0,1,64.7,0H88.93a7,7,0,0,0-7,7V99a7,7,0,0,0,7,7h13.14a7,7,0,0,0,7-7V56.63A7,7,0,0,0,102.07,49.63Zm-60,7V99a3,3,0,0,1-3,3H25.93a3,3,0,0,1-3-3V56.63a3,3,0,0,1,3-3H39.07A3,3,0,0,1,42.07,56.63Zm63,42.39a3,3,0,0,1-3,3H88.93a3,3,0,0,1-3-3V56.63a3,3,0,0,1,3-3h13.14a3,3,0,0,1,3,3Z"/></svg>